<svg xmlns="http://www.w3.org/2000/svg" width="800" height="600" viewBox="0 0 800 600"><defs><linearGradient id="a" x1="48.339%" x2="53.95%" y1="64.844%" y2="39.522%"><stop offset="0%" stop-color="#70B"/><stop offset="100%" stop-color="#00008B"/></linearGradient><linearGradient id="b" x1="51.022%" x2="48.848%" y1="-1.843%" y2="108.301%"><stop offset="0%" stop-color="#88CFDA"/><stop offset=".834%" stop-color="#89CFD9"/><stop offset="47.84%" stop-color="#C8D9BB"/><stop offset="82.18%" stop-color="#F0DFA7"/><stop offset="100%" stop-color="#FFE1A0"/></linearGradient><linearGradient id="c" x1="51.232%" x2="48.993%" y1="50.968%" y2="48.804%"><stop offset="0%" stop-color="#70B"/><stop offset="100%" stop-color="#00008B"/></linearGradient><linearGradient id="d" x1="101.704%" x2="3.106%" y1="28.026%" y2="69.93%"><stop offset="0%" stop-color="#7981FF"/><stop offset="13.45%" stop-color="#7E85FF"/><stop offset="28.66%" stop-color="#8B92FF"/><stop offset="44.72%" stop-color="#A2A7FF"/><stop offset="61.37%" stop-color="#C2C5FF"/><stop offset="78.32%" stop-color="#EAEBFF"/><stop offset="86.1%" stop-color="#FFF"/></linearGradient><linearGradient id="e" x1="0%" x2="100.001%" y1="49.998%" y2="49.998%"><stop offset="0%" stop-color="#7633FF"/><stop offset="15.85%" stop-color="#7137FF"/><stop offset="35.35%" stop-color="#6243FF"/><stop offset="56.76%" stop-color="#4957FF"/><stop offset="79.37%" stop-color="#2672FF"/><stop offset="100%" stop-color="#0090FF"/></linearGradient><linearGradient id="f" x1="49.995%" x2="49.995%" y1="-2.419%" y2="101.42%"><stop offset="19.27%" stop-color="#E19000"/><stop offset="36%" stop-color="#E39504"/><stop offset="56.57%" stop-color="#E9A410"/><stop offset="79.05%" stop-color="#F3BD23"/><stop offset="100%" stop-color="#FFDB3B"/></linearGradient><linearGradient id="g" x1="47.975%" x2="52.207%" y1="-59.01%" y2="76.378%"><stop offset="0%" stop-color="#7981FF"/><stop offset="13.45%" stop-color="#7E85FF"/><stop offset="28.66%" stop-color="#8B92FF"/><stop offset="44.72%" stop-color="#A2A7FF"/><stop offset="61.37%" stop-color="#C2C5FF"/><stop offset="78.32%" stop-color="#EAEBFF"/><stop offset="86.1%" stop-color="#FFF"/></linearGradient><linearGradient id="h" x1=".004%" x2="100%" y1="49.995%" y2="49.995%"><stop offset="0%" stop-color="#88CFDA"/><stop offset=".834%" stop-color="#89CFD9"/><stop offset="47.84%" stop-color="#C8D9BB"/><stop offset="82.18%" stop-color="#F0DFA7"/><stop offset="100%" stop-color="#FFE1A0"/></linearGradient><linearGradient id="i" x1="49.095%" x2="52.143%" y1="18.605%" y2="125.08%"><stop offset="0%" stop-color="#9A0086"/><stop offset="100%" stop-color="#00008B"/><stop offset="100%"/></linearGradient><linearGradient id="j" x1="53.684%" x2="47.444%" y1="-18.334%" y2="118.722%"><stop offset="0%" stop-color="#7981FF"/><stop offset="13.45%" stop-color="#7E85FF"/><stop offset="28.66%" stop-color="#8B92FF"/><stop offset="44.72%" stop-color="#A2A7FF"/><stop offset="61.37%" stop-color="#C2C5FF"/><stop offset="78.32%" stop-color="#EAEBFF"/><stop offset="86.1%" stop-color="#FFF"/></linearGradient><linearGradient id="k" x1="-.004%" x2="99.998%" y1="49.993%" y2="49.993%"><stop offset="0%" stop-color="#88CFDA"/><stop offset=".834%" stop-color="#89CFD9"/><stop offset="47.84%" stop-color="#C8D9BB"/><stop offset="82.18%" stop-color="#F0DFA7"/><stop offset="100%" stop-color="#FFE1A0"/></linearGradient><linearGradient id="l" x1="49.999%" x2="49.999%" y1="-1.25%" y2="103.163%"><stop offset="0%" stop-color="#7633FF"/><stop offset="15.85%" stop-color="#7137FF"/><stop offset="35.35%" stop-color="#6243FF"/><stop offset="56.76%" stop-color="#4957FF"/><stop offset="79.37%" stop-color="#2672FF"/><stop offset="100%" stop-color="#0090FF"/></linearGradient><linearGradient id="m" x1="54.8%" x2="46.362%" y1="-9.884%" y2="115.152%"><stop offset="0%" stop-color="#7981FF"/><stop offset="13.45%" stop-color="#7E85FF"/><stop offset="28.66%" stop-color="#8B92FF"/><stop offset="44.72%" stop-color="#A2A7FF"/><stop offset="61.37%" stop-color="#C2C5FF"/><stop offset="78.32%" stop-color="#EAEBFF"/><stop offset="86.1%" stop-color="#FFF"/></linearGradient><linearGradient id="n" x1="-.002%" x2="100%" y1="50%" y2="50%"><stop offset="0%" stop-color="#88CFDA"/><stop offset=".834%" stop-color="#89CFD9"/><stop offset="47.84%" stop-color="#C8D9BB"/><stop offset="82.18%" stop-color="#F0DFA7"/><stop offset="100%" stop-color="#FFE1A0"/></linearGradient><linearGradient id="o" x1="-.031%" x2="100.002%" y1="50.003%" y2="50.003%"><stop offset="4.14%" stop-color="#10003B"/><stop offset="100%" stop-color="#090E96"/></linearGradient><linearGradient id="p" x1="-.015%" x2="100.018%" y1="50.013%" y2="50.013%"><stop offset="0%" stop-color="#70B"/><stop offset="100%" stop-color="#00008B"/><stop offset="100%"/></linearGradient><linearGradient id="q" x1="-.245%" x2="99.618%" y1="50.552%" y2="50.552%"><stop offset="0%" stop-color="#7981FF"/><stop offset="76.47%" stop-color="#FFF"/></linearGradient><linearGradient id="r" x1=".03%" x2="100.045%" y1="50.017%" y2="50.017%"><stop offset="0%" stop-color="#7633FF"/><stop offset="15.85%" stop-color="#7137FF"/><stop offset="35.35%" stop-color="#6243FF"/><stop offset="56.76%" stop-color="#4957FF"/><stop offset="79.37%" stop-color="#2672FF"/><stop offset="100%" stop-color="#0090FF"/></linearGradient><linearGradient id="s" x1="48.777%" x2="51.78%" y1="15.323%" y2="126.783%"><stop offset="0%" stop-color="#7981FF"/><stop offset="76.47%" stop-color="#FFF"/></linearGradient><linearGradient id="t" x1=".538%" x2="100.491%" y1="50.061%" y2="50.061%"><stop offset="0%" stop-color="#7981FF"/><stop offset="76.47%" stop-color="#FFF"/></linearGradient><linearGradient id="u" x1="-.227%" x2="100.299%" y1="50.093%" y2="50.093%"><stop offset="0%" stop-color="#7981FF"/><stop offset="76.47%" stop-color="#FFF"/></linearGradient><linearGradient id="v" x1="-.04%" x2="99.864%" y1="49.936%" y2="49.936%"><stop offset="0%" stop-color="#7981FF"/><stop offset="76.47%" stop-color="#FFF"/></linearGradient><linearGradient id="w" x1="30.398%" x2="62.058%" y1="4.334%" y2="99.75%"><stop offset="0%" stop-color="#70B"/><stop offset="100%" stop-color="#00008B"/><stop offset="100%"/></linearGradient><linearGradient id="x" x1="49.995%" x2="49.995%" y1="-.094%" y2="110.33%"><stop offset="4.14%" stop-color="#10003B"/><stop offset="100%" stop-color="#090E96"/></linearGradient><linearGradient id="y" x1="-.041%" x2="99.998%" y1="49.972%" y2="49.972%"><stop offset="0%" stop-color="#7633FF"/><stop offset="9.67%" stop-color="#7137FF"/><stop offset="21.57%" stop-color="#6243FF"/><stop offset="34.64%" stop-color="#4957FF"/><stop offset="48.44%" stop-color="#2672FF"/><stop offset="61.03%" stop-color="#0090FF"/></linearGradient><linearGradient id="z" x1="49.999%" x2="49.999%" y1="-.155%" y2="98.863%"><stop offset="0%" stop-color="#562300"/><stop offset="83.17%" stop-color="#663B00"/></linearGradient><linearGradient id="A" x1=".057%" x2="100.048%" y1="50%" y2="50%"><stop offset="0%" stop-color="#562300"/><stop offset="43.32%" stop-color="#663B00"/></linearGradient><linearGradient id="B" x1="-.199%" x2="99.855%" y1="50.15%" y2="50.15%"><stop offset="0%" stop-color="#562300"/><stop offset="43.32%" stop-color="#663B00"/></linearGradient><linearGradient id="C" x1=".336%" x2="100.126%" y1="50.041%" y2="50.041%"><stop offset="0%" stop-color="#562300"/><stop offset="43.32%" stop-color="#663B00"/></linearGradient><linearGradient id="D" x1=".007%" x2="100.016%" y1="50.047%" y2="50.047%"><stop offset="0%" stop-color="#562300"/><stop offset="43.32%" stop-color="#663B00"/></linearGradient><linearGradient id="E" x1="-.05%" x2="99.993%" y1="49.998%" y2="49.998%"><stop offset="0%" stop-color="#562300"/><stop offset="43.32%" stop-color="#663B00"/></linearGradient><linearGradient id="F" x1="-.023%" x2="100.132%" y1="49.966%" y2="49.966%"><stop offset="0%" stop-color="#7633FF"/><stop offset="9.67%" stop-color="#7137FF"/><stop offset="21.57%" stop-color="#6243FF"/><stop offset="34.64%" stop-color="#4957FF"/><stop offset="48.44%" stop-color="#2672FF"/><stop offset="61.03%" stop-color="#0090FF"/></linearGradient><linearGradient id="G" x1=".108%" x2="99.98%" y1="50.049%" y2="50.049%"><stop offset="0%" stop-color="#7633FF"/><stop offset="9.67%" stop-color="#7137FF"/><stop offset="21.57%" stop-color="#6243FF"/><stop offset="34.64%" stop-color="#4957FF"/><stop offset="48.44%" stop-color="#2672FF"/><stop offset="61.03%" stop-color="#0090FF"/></linearGradient><linearGradient id="H" x1="49.978%" x2="49.978%" y1="13.317%" y2="91.403%"><stop offset="0%" stop-color="#7633FF"/><stop offset="15.85%" stop-color="#7137FF"/><stop offset="35.35%" stop-color="#6243FF"/><stop offset="56.76%" stop-color="#4957FF"/><stop offset="79.37%" stop-color="#2672FF"/><stop offset="100%" stop-color="#0090FF"/></linearGradient><linearGradient id="I" x1="-.017%" x2="100%" y1="50.041%" y2="50.041%"><stop offset="19.27%" stop-color="#E19000"/><stop offset="36%" stop-color="#E39504"/><stop offset="56.57%" stop-color="#E9A410"/><stop offset="79.05%" stop-color="#F3BD23"/><stop offset="100%" stop-color="#FFDB3B"/></linearGradient><linearGradient id="J" x1="50.459%" x2="48.848%" y1="20.227%" y2="110.461%"><stop offset="0%" stop-color="#A1BAFF"/><stop offset="43.32%" stop-color="#FFF"/></linearGradient><linearGradient id="K" x1="49.991%" x2="49.991%" y1="12.052%" y2="103.136%"><stop offset="0%" stop-color="#A1BAFF"/><stop offset="43.32%" stop-color="#FFF"/></linearGradient><linearGradient id="L" x1=".001%" x2="100%" y1="50.001%" y2="50.001%"><stop offset="0%" stop-color="#A1BAFF"/><stop offset="43.32%" stop-color="#FFF"/></linearGradient><linearGradient id="M" x1="-.021%" x2="100.001%" y1="49.957%" y2="49.957%"><stop offset="0%" stop-color="#A1BAFF"/><stop offset="43.32%" stop-color="#FFF"/></linearGradient><linearGradient id="N" x1="0%" x2="99.995%" y1="50.003%" y2="50.003%"><stop offset="0%" stop-color="#311341"/><stop offset="22.99%" stop-color="#3113C2"/><stop offset="34.79%" stop-color="#2F18C5"/><stop offset="49.31%" stop-color="#2927CC"/><stop offset="65.24%" stop-color="#1F40D8"/><stop offset="82.19%" stop-color="#1263E9"/><stop offset="99.78%" stop-color="#008FFF"/><stop offset="100%" stop-color="#0090FF"/></linearGradient><linearGradient id="O" x1="46.614%" x2="65.735%" y1="36.994%" y2="106.588%"><stop offset="0%" stop-color="#A1BAFF"/><stop offset="43.32%" stop-color="#FFF"/></linearGradient><linearGradient id="P" x1="50.067%" x2="51.151%" y1="10.976%" y2="93.444%"><stop offset="4.14%" stop-color="#100022"/><stop offset="100%" stop-color="#090E6A"/></linearGradient><linearGradient id="Q" x1="41.445%" x2="96.409%" y1="29.793%" y2="75.744%"><stop offset="4.14%" stop-color="#10003B"/><stop offset="26.46%" stop-color="#10013E"/><stop offset="45.94%" stop-color="#0F0249"/><stop offset="64.35%" stop-color="#0E055B"/><stop offset="82.11%" stop-color="#0C0974"/><stop offset="99.26%" stop-color="#090E94"/><stop offset="100%" stop-color="#090E96"/></linearGradient><linearGradient id="R" x1=".007%" x2="99.999%" y1="49.996%" y2="49.996%"><stop offset="0%" stop-color="#7633FF"/><stop offset="15.85%" stop-color="#7137FF"/><stop offset="35.35%" stop-color="#6243FF"/><stop offset="56.76%" stop-color="#4957FF"/><stop offset="79.37%" stop-color="#2672FF"/><stop offset="100%" stop-color="#0090FF"/></linearGradient><linearGradient id="S" x1="3.2%" x2="97.527%" y1="44.242%" y2="65.286%"><stop offset="0%" stop-color="#7633FF"/><stop offset="9.67%" stop-color="#7137FF"/><stop offset="21.57%" stop-color="#6243FF"/><stop offset="34.64%" stop-color="#4957FF"/><stop offset="48.44%" stop-color="#2672FF"/><stop offset="61.03%" stop-color="#0090FF"/></linearGradient></defs><g fill="none" fill-rule="evenodd" transform="translate(5 63)"><g transform="translate(33)"><path fill="url(#a)" fill-rule="nonzero" d="M15.23,376.9 L731.8,376.9 C731.8,376.9 756.62,217.78 646.49,119.55 C536.37,21.31 376.61,97.41 376.61,97.41 C376.61,97.41 291.92,-31.93 156.36,7.47 C-65.65,72.01 15.23,376.9 15.23,376.9 Z"/><path fill="#FFF" fill-rule="nonzero" d="M210.39,97.95 L303.36,97.95 C308.41,95.34 311.87,90.05 311.87,83.95 C311.87,76.05 306.07,69.51 298.52,68.39 C298.53,68.13 298.54,67.88 298.54,67.62 C298.54,58.38 290.9,50.89 281.48,50.89 C280.49,50.89 279.53,50.97 278.59,51.13 C274.53,44.08 266.6,39.29 257.48,39.29 C246.86,39.29 237.85,45.79 234.69,54.79 C233.69,54.59 232.67,54.48 231.62,54.48 C222.56,54.48 215.22,62.27 215.22,71.88 C215.22,72.96 215.31,74.02 215.49,75.04 C208.63,75.48 203.219974,80.73 203.219974,87.14 C203.21,91.85 206.13,95.93 210.39,97.95 Z" opacity=".2"/><g fill-rule="nonzero" transform="translate(105 31)"><g fill="#FFF" transform="translate(0 9)"><path d="M95.54 1.25C95.54 1.71 95.2 2.07 94.78 2.07 94.36 2.07 94.02 1.7 94.02 1.25 94.02.79 94.36.43 94.78.43 95.2.43 95.54.79 95.54 1.25zM59.51 64.84C59.51 65.3 59.17 65.66 58.75 65.66 58.33 65.66 57.99 65.29 57.99 64.84 57.99 64.38 58.33 64.02 58.75 64.02 59.17 64.01 59.51 64.38 59.51 64.84zM2.2 54.87C2.2 55.33 1.86 55.69 1.44 55.69 1.02 55.69.68 55.32.68 54.87.68 54.41 1.02 54.05 1.44 54.05 1.87 54.05 2.2 54.42 2.2 54.87z"/></g><circle cx="46.74" cy="33.33" r="32.5" fill="url(#b)" opacity=".8"/></g></g><g transform="translate(10 375)"><path fill="url(#c)" d="M38.23,1.9 C38.23,1.9 -9.45,13.6 2.28,59.32 C8.41,83.21 53.24,88.73 116.1,88.73 C117.57,88.73 119.04,88.72 120.5,88.71 C121.84,89.16 123.2,89.6 124.58,90.01 C198.46,111.88 299.32,90.05 390.54,62.6 C461.96,41.11 623.65,44.97 674.12,44.97 C848.66,44.97 754.81,1.91 754.81,1.91 L38.23,1.91 L38.23,1.9 Z"/><polygon fill="#000640" fill-rule="nonzero" points="731.69 32.8 298.71 32.8 298.71 .98 699.87 .98" opacity=".5"/><path fill="#000640" d="M325.71,59.8 C325.71,69.39 255.26,77.16 168.36,77.16 C81.46,77.16 11.01,69.39 11.01,59.8 C11.01,50.21 81.46,42.44 168.36,42.44 C255.26,42.44 325.71,50.22 325.71,59.8 Z" opacity=".5"/></g><polyline fill="#83FFFF" fill-rule="nonzero" points="82.09 127.18 314.49 109.82 309.67 368.26 67.63 187.93" opacity=".3"/><g transform="translate(306 110)"><path fill="url(#d)" fill-rule="nonzero" d="M411.71,248.28 C411.71,253.78 407.25,258.25 401.74,258.25 L10.91,258.25 C5.41,258.25 0.94,253.79 0.94,248.28 L0.94,10.04 C0.94,4.54 5.4,0.07 10.91,0.07 L401.75,0.07 C407.25,0.07 411.72,4.53 411.72,10.04 L411.72,248.28 L411.71,248.28 Z"/><rect width="410.77" height="31.57" x=".94" y="12.79" fill="url(#e)"/><path fill="#FFF" fill-rule="nonzero" d="M359.01,28.85 C359.01,33.07 355.59,36.5 351.36,36.5 L77.99,36.5 C73.77,36.5 70.34,33.07 70.34,28.85 L70.34,28.85 C70.34,24.62 73.76,21.2 77.99,21.2 L351.36,21.2 C355.58,21.2 359.01,24.63 359.01,28.85 L359.01,28.85 Z"/></g><g fill-rule="nonzero" transform="translate(448 242)"><rect width="109.22" height="134.98" x=".03" y="23.07" fill="url(#f)"/><polygon fill="url(#g)" points="52.28 80.04 52.18 80.04 46.2 82.88 44.99 77.38 53.28 73.52 59.36 73.52 59.36 104.86 52.27 104.86 52.27 80.04"/><polygon fill="url(#h)" points="109.9 23.21 0 23.21 9.19 .56 101.01 .56" opacity=".8"/></g><g fill-rule="nonzero" transform="translate(320 303)"><rect width="100.99" height="73.49" x=".9" y="23.57" fill="url(#i)"/><path fill="url(#j)" d="M40.43,70.77 C41.73,71.44 44.72,72.7 47.71,72.7 C51.52,72.7 53.45,70.87 53.45,68.51 C53.45,65.42 50.36,64.03 47.13,64.03 L44.14,64.03 L44.14,58.77 L46.98,58.77 C49.44,58.72 52.57,57.81 52.57,55.15 C52.57,53.27 51.03,51.87 47.94,51.87 C45.38,51.87 42.68,52.98 41.38,53.75 L39.89,48.45 C41.77,47.24 45.53,46.09 49.58,46.09 C56.28,46.09 59.99,49.61 59.99,53.9 C59.99,57.23 58.11,59.83 54.25,61.18 L54.25,61.28 C58.01,61.95 61.05,64.8 61.05,68.9 C61.05,74.45 56.18,78.5 48.22,78.5 C44.17,78.5 40.75,77.44 38.91,76.28 L40.43,70.77 Z"/><polygon fill="url(#k)" points="101.88 23.57 .9 23.57 13.04 .93 108.68 .93" opacity=".8"/><path fill="#000" d="M108.68,0.93 L108.68,77.93 C108.68,77.93 101.88,100.77 101.88,97.06 C101.88,93.35 101.88,23.57 101.88,23.57 L108.68,0.93 Z"/></g><g fill-rule="nonzero" transform="translate(570 276)"><rect width="100.99" height="100.99" x="12.31" y="23.07" fill="url(#l)"/><path fill="url(#m)" d="M50.8,90.16 L50.8,85.72 L54.85,82.06 C61.7,75.94 65.02,72.42 65.12,68.75 C65.12,66.19 63.58,64.17 59.96,64.17 C57.26,64.17 54.9,65.52 53.26,66.77 L51.19,61.51 C53.55,59.73 57.22,58.28 61.46,58.28 C68.55,58.28 72.45,62.43 72.45,68.12 C72.45,73.38 68.64,77.57 64.11,81.62 L61.22,84.03 L61.22,84.13 L73.03,84.13 L73.03,90.16 L50.8,90.16 Z"/><polygon fill="url(#n)" points="113.21 23.07 12.4 23.07 .47 .43 105.34 .43" opacity=".8"/><path fill="#000" d="M0.47,0.43 L0.47,105.6 C0.47,105.6 12.31,127.1 12.31,124.06 C12.31,121.02 12.31,21.09 12.31,21.09 L0.47,0.43 Z"/></g><path fill="#000640" fill-rule="nonzero" d="M397.8,316.45 C397.8,319.88 386.96,322.67 373.58,322.67 C360.21,322.67 349.36,319.89 349.36,316.45 C349.36,313.02 360.2,310.24 373.58,310.24 C386.95,310.24 397.8,313.02 397.8,316.45 Z" opacity=".2"/><ellipse cx="501.2" cy="256.66" fill="#000640" fill-rule="nonzero" opacity=".2" rx="32.47" ry="5.79"/><path fill="#000640" fill-rule="nonzero" d="M655.18,289.19 C655.18,292.92 643.83,295.94 629.83,295.94 C615.83,295.94 604.48,292.92 604.48,289.19 C604.48,285.46 615.83,282.44 629.83,282.44 C643.83,282.44 655.18,285.46 655.18,289.19 Z" opacity=".2"/><g fill-rule="nonzero" transform="translate(352 176)"><path fill="#EEA886" d="M61.8,15.88 C61.8,15.88 59.65,18.09 59.57,18.33 C59.49,18.56 58.23,14.67 58.23,14.67 L61.8,15.88 Z"/><path fill="#FFF" d="M58.23,14.67 C58.23,14.67 57.49,12.27 57.39,11.9 C57.29,11.53 57.63,10.52 58.12,9.39 C58.61,8.26 59.79,6.96 59.99,6.92 C60.2,6.88 60.39,6.75 60.89,6.98 C61.38,7.21 61.68,7.68 61.68,7.68 C61.68,7.68 62.42,7.68 62.74,8.28 C62.74,8.28 63.44,8.31 63.69,9.05 C63.69,9.05 64.37,9.1 64.51,9.65 C64.51,9.65 64.17,10.67 64.15,11.08 C64.13,11.49 62.92,14.03 61.8,15.89 C61.8,15.88 60.5,16.8 58.23,14.67 Z"/><path fill="#FFF" d="M59.87,7.21 C59.87,7.21 58.69,10.1 59.13,10.35 C59.57,10.6 59.89,10.42 59.89,10.42 L59.94,11.83 C59.94,11.83 60.5,12.75 61.33,11.87 C61.33,11.87 61.77,12.78 62.47,11.83 C62.47,11.83 63.03,12.3 63.43,11.92 C63.83,11.54 64.51,9.65 64.51,9.65 C64.51,9.65 64.48,9.18 63.69,9.05 C63.69,9.05 63.5,8.33 62.74,8.28 C62.74,8.28 62.49,7.72 61.68,7.68 C61.68,7.68 61.03,6.48 60,6.93 C60.01,6.92 59.92,7.09 59.87,7.21 Z"/><path fill="#FFF" d="M57.42,11.81 C57.42,11.81 59.05,10.41 60.27,10.04 C60.55,9.95 60.83,9.92 61.01,10.15 C61.19,10.37 61.1,10.92 60.42,11.57 C59.75,12.21 59.17,13.35 59.17,13.35 C59.17,13.35 58.29,13.8 57.42,11.81 Z"/><path fill="#131C24" d="M7.92,134.16 C7.92,134.16 6.49,135.18 5.7,135.9 C4.91,136.61 3.83,137.39 3.17,139.22 C2.5,141.07 3.56,142.39 5.34,142.5 C7.13,142.61 9.87,141.26 10.13,139.62 C10.39,138 12.5,138.19 12.77,137.04 C13.04,135.89 12.68,134.47 12.68,134.47 L7.92,134.16 Z"/><path fill="#EEA886" d="M8.16,132.82 L7.92,134.16 C7.92,134.16 8.66,135.52 12.68,134.46 L12.47,133.14 L8.16,132.82 Z"/><path fill="#D6C7B2" d="M12.69,134.46 C12.69,134.46 11.78,134.58 11.14,134.68 C10.49,134.78 9.22,133.96 7.93,134.16 L8.33,135.79 C8.32,135.79 12.6,134.99 12.69,134.46 Z"/><path fill="#131C24" d="M33.61,134.16 C33.61,134.16 35.04,135.18 35.83,135.9 C36.62,136.61 37.7,137.39 38.36,139.22 C39.03,141.07 37.98,142.39 36.19,142.5 C34.4,142.61 31.66,141.26 31.39,139.62 C31.13,138 29.03,138.19 28.75,137.04 C28.48,135.89 28.84,134.47 28.84,134.47 L33.61,134.16 Z"/><path fill="#EEA886" d="M33.37,132.82 L33.61,134.16 C33.61,134.16 32.87,135.52 28.85,134.46 L29.06,133.14 L33.37,132.82 Z"/><path fill="url(#o)" d="M35.05,59.93 C35.05,59.93 21.18,57.2 13.99,59.78 C13.69,59.89 13.4,60.01 13.13,60.13 C13.13,60.13 13.11,60.25 13.08,60.48 C13.01,61.01 12.86,62.12 12.66,63.63 C12.63,63.88 12.59,64.15 12.55,64.42 C11.53,72.17 10,83.43 9.7,88.93 C9.32,96.14 8.92,97.17 8.92,98.52 C8.92,102.17 7.64,132.95 7.64,132.95 C7.64,132.95 9.82,134.12 13.17,132.95 C13.17,132.95 17.13,102.42 17.82,100.16 C18.51,97.9 23.38,77.31 24.24,77.22 C25.1,77.12 27.49,98.98 27.67,101.95 C27.85,104.92 27.68,132.48 28.66,132.97 C29.64,133.46 33.63,133.51 33.92,132.53 C33.92,132.53 35.09,104.51 35.09,101.57 C35.09,98.62 36.04,75.67 35.96,74.69 C35.95,74.69 36.22,67.48 35.05,59.93 Z"/><path fill="url(#p)" d="M28.58,20.32 C28.58,20.32 34.61,22.09 37.92,22.94 C40.6,23.63 45.27,26.04 50.52,26.87 C51.82,27.07 57.21,14.26 57.21,14.26 C57.21,14.26 62.6,15.53 62.630514,15.69 C62.7,16.14 55.6,33.2 53.51,34.03 C51.87,34.69 37.5,32.78 37.5,32.78 C37.5,32.78 35.94,54.6 35.94,57.28 C35.94,59.96 35.98,66.81 35.98,66.81 C35.98,66.81 32.17,69.1 23.39,69.3400222 C23.39,69.3400222 10.43,69.39 11.74,64.74 C12.71,61.31 12.77,38.03 12.51,37.9 C12.25,37.77 7.55,43.66 8,44.79 C8.46,45.92 20.63,49.99 20.63,49.99 C20.63,49.99 20.99,51.3 19.1,54.27 C19.1,54.27 0.92,48.96 0.859521515,47.84 C0.79,46.73 8.42,25.11 10.91,23.98 C14.5,22.35 23.87,19.79 23.87,19.79 L28.58,20.32 Z"/><path fill="#D6C7B2" d="M28.85,134.46 C28.85,134.46 29.76,134.58 30.4,134.68 C31.05,134.78 32.32,133.96 33.61,134.16 L33.22,135.79 C33.21,135.79 28.94,134.99 28.85,134.46 Z"/><path fill="url(#q)" d="M24.41,49.4 C24.41,49.4 25.72,49.36 26.13,49.3 C26.53,49.24 26.27,50.1 25.8,50.26 C25.33,50.43 24.41,49.4 24.41,49.4 Z"/><path fill="url(#r)" d="M19.96,20.93 C19.96,20.93 19.83,26.17 25.22,26.04 C30.81,25.91 29.64,20.63 29.64,20.63 C29.64,20.63 25.4,18.72 19.96,20.93 Z"/><path fill="url(#s)" d="M28.39,16.23 C28.39,16.23 27.91,18.89 28.74,20.71 C28.74,20.71 29.59,24.94 25.26,25.13 C20.93,25.32 20.9699933,20.56 20.9699933,20.56 C20.9699933,20.56 21.86,20.04 21.17,16.25 C20.48,12.46 28.39,16.23 28.39,16.23 Z"/><path fill="#FFF" d="M25.76,0.84 C25.76,0.84 31.31,1.73 30.46,10.62 C29.62,19.5 24.72,18.78 24.39,18.77 C24.06,18.76 19.48,18.93 19.12,8.08 C19.12,8.09 18.97,0.06 25.76,0.84 Z"/><path fill="url(#t)" d="M30.54,8.11 C30.54,8.11 31.15,7.45 31.37,8.12 C31.59,8.79 30.58,11.69 30.5,11.93 C30.5,11.93 30.39,12.19 30.24,12.05 C30.11,11.91 30.54,8.11 30.54,8.11 Z"/><path fill="url(#u)" d="M19.26,8 C19.26,8 18.67,7.32 18.43,7.99 C18.19,8.66 19.18,11.71 19.22,11.82 C19.22,11.82 19.33,12.08 19.47,11.94 C19.62,11.8 19.26,8 19.26,8 Z"/><path fill="#000" d="M30.54,9.48 L29.75,10.57 C29.75,10.57 29.77,8.19 29.65,7.81 C29.52,7.44 29.8,6.13 29.69,5.87 C29.58,5.6 25.9,6.6 19.85,5.99 C19.85,5.99 20.52,8.14 20.13,8.29 C19.74,8.44 19.93,11.08 19.93,11.08 L19.28,10.33 C19.28,10.33 18.54,5.82 18.61,5.07 C18.71,4.07 18.37,-0.61 26.87,0.2 C27.84,0.29 28.78,0.65 29.56,1.26 C30.44,1.94 31.33,3.01 31.25,4.47 C31.14,6.38 30.54,9.48 30.54,9.48 Z"/><path fill="url(#v)" d="M25.17,55.68 C25.17,55.68 24.6,55.82 24.32,55.76 C24.32,55.76 23.82,55.61 23.46,55.52 C23.34,55.49 23.24,55.47 23.18,55.47 C22.9,55.44 22.28,55.46 21.63,55.21 C20.98,54.96 18.77,53.83 18.77,53.83 L19.4,51.78 L19.88,50.15 C19.88,50.15 23.61,49.16 24.24,49.32 C24.3,49.34 24.36,49.36 24.42,49.38 C24.94,49.57 25.25,49.94 25.51,50.07 C25.61,50.12 26.53,50.67 26.58,50.99 C26.65,51.43 26.52,51.76 26.29,51.97 C26.29,51.97 26.38,52.84 26.06,53.33 C26.06,53.33 26.17,54.13 25.6,54.63 C25.59,54.63 25.61,55.45 25.17,55.68 Z"/><path fill="url(#w)" d="M20.6300353,49.88 C20.6300353,49.88 20.66,52.63 18.97,54.68 C18.97,54.68 5.75,50.12 4.16,49.5 C2.57,48.87 9.94,29.3 9.94,29.3 L15.36,31.15 L12.45,36.66 C12.45,36.66 11.01,39.74 8.01,44.82 C8,44.8 9.85,46.43 20.6300353,49.88 Z"/><path fill="#E55353" d="M15.5 22.31C15.5 22.31 16.41 21.84 17.26 21.75 17.26 21.75 16.42 22.14 15.5 22.31zM33.26 21.67C33.26 21.67 34.26 21.81 35.01 22.16 35.01 22.16 33.79 21.98 33.26 21.67z"/></g><g fill-rule="nonzero" transform="translate(479 96)"><path fill="#131C24" d="M6.09,154.63 C6.09,154.63 5.2,156.63 4.45,157.43 C3.7,158.22 0.82,159.64 0.809938583,162 C0.79,164.56 5.66,163.85 7.56,163.75 C9.46,163.66 9.61,162.29 10.41,160.84 C11.21,159.39 12.02,159.64 12.17,158.47 C12.32,157.3 11.56,154.69 11.56,154.69 L6.09,154.63 Z"/><path fill="#3C568A" d="M6.01,153.89 L5.87,155.1 C5.87,155.1 8.86,156.1 11.69,155.2 L11.53,153.54 L6.01,153.89 Z"/><path fill="#131C24" d="M41.18,154.63 C41.18,154.63 42.07,156.63 42.82,157.43 C43.57,158.22 46.45,159.64 46.4600614,162 C46.48,164.56 41.61,163.85 39.71,163.75 C37.81,163.66 37.66,162.29 36.86,160.84 C36.06,159.39 35.25,159.64 35.1,158.47 C34.95,157.3 35.71,154.69 35.71,154.69 L41.18,154.63 Z"/><path fill="#3C568A" d="M41.26,153.89 L41.4,155.1 C41.4,155.1 38.41,156.1 35.58,155.2 L35.74,153.54 L41.26,153.89 Z"/><path fill="url(#x)" d="M39.69,121.63 C39.69,124.78 42.63,153.55 42.63,153.55 C42.29,154.6 35.07,154.47 33.94,153.95 C32.81,153.43 29.54,124.91 29.33,121.73 C29.12,118.55 24.42,90.92 23.43,91.02 C22.44,91.12 17.76,120.74 16.97,123.16 C16.18,125.58 12.61,154.22 12.61,154.22 C10.13,155.59 4.24,153.88 4.24,153.88 C4.24,153.88 5.47,124.47 5.61,123.58 C5.82,122.27 5.6,118.72 6.17,110.86 C6.68,103.83 8.54,88.52 9.71,80.23 C9.75,79.94 9.79,79.65 9.83,79.38 C10.06,77.77 10.23,76.58 10.32,76.01 C10.36,75.76 10.38,75.63 10.38,75.63 C10.7,75.49 11.03,75.37 11.37,75.25 C19.62,72.49 35.33,72.66 35.33,72.66 C35.33,72.66 35.55,75.48 35.56,75.62 C35.58,75.79 35.61,76.05 35.66,76.39 C35.75,77.12 35.89,78.21 36.04,79.47 C36.04,79.48 36.04,79.49 36.04,79.5 C36.05,79.54 36.05,79.58 36.06,79.62 C36.61,84.12 37.4,90.7 37.32,91.38 C37.22,92.44 39.69,118.47 39.69,121.63 Z"/><path fill="url(#y)" d="M40.86,28.42 L36.81,42.96 C36.67,43.43 36.51,44.01 36.33,44.69 L36.32,44.72 C36.32,44.73 36.32,44.73 36.31,44.74 C35.63,47.33 34.8,51.28 34.55,55.67 C34.38,58.66 34.94,70.7 34.94,70.7 C34.94,70.7 28.81,72.99 19.63,72.41 C19.63,72.41 9.76,72.18 10.56,66.13 C12.69,50.11 10.61,43.5 10.33,41.89 C10.33,41.89 9.16,34.51 8.21,27.99 C10.99,26.96 22.68,22.57 22.68,22.57 L28.83,23.03 C28.82,23.01 38.16,25.31 40.86,28.42 Z"/><path fill="url(#z)" d="M28.53,22.91 C28.18,22.03 28.38,18.23 28.38,18.23 C28.38,18.23 20.75,16.2 20.95,17.69 C21.13,18.99 20.65,22.37 20.53,23.21 C20.32,23.3 20.1,23.38 19.89,23.49 C19.89,23.49 21.5,26.29 24.55,26.55 C26.49,26.72 28.15,24.26 28.93,23.05 C28.93,23.06 28.79,23 28.53,22.91 Z"/><path fill="url(#A)" d="M25.75,1.99 C25.75,1.99 31.75,3 30.73,12.4 C29.71,21.8 24.41,20.97 24.06,20.95 C23.71,20.94 18.73,21.06 18.47,9.58 C18.48,9.58 18.4,1.09 25.75,1.99 Z"/><path fill="url(#B)" d="M30.86,9.74 C30.86,9.74 31.53,9.04 31.76,9.76 C31.99,10.48 30.7,13.64 30.78,13.78 C30.78,13.78 30.66,14.05 30.5,13.9 C30.34,13.75 30.86,9.74 30.86,9.74 Z"/><path fill="url(#C)" d="M18.54,9.49 C18.54,9.49 17.9,8.77 17.64,9.47 C17.38,10.17 18.34,13.34 18.46,13.53 C18.46,13.53 18.67,13.85 18.83,13.71 C18.99,13.56 18.54,9.49 18.54,9.49 Z"/><path fill="#1B2833" d="M24.55,25.5 L25.94,27.62 C25.94,27.62 24.48,28.45 23.12,27.57 L24.55,25.5 Z"/><path fill="#000" d="M10.22,73.49 C10.22,73.49 17.75,76.27 34.78,73.65 L34.55,70.57 C34.55,70.57 24.68,73.48 10.52,70.99 L10.22,73.49 Z"/><path fill="#000" d="M28.95 23.04C28.95 23.04 27.19 36.21 27.43 47.56 27.67 58.9 31.35 80.18 31.35 80.18 31.35 80.18 37.92 79.54 39.55 77.49 39.55 77.49 35.78 57.01 35.89 53.98 36 50.95 40.72 28.13 40.72 28.13 40.72 28.13 38.87 25.66 28.95 23.04zM19.52 23.73C19.52 23.73 19.5 36.21 19.26 47.56 19.02 58.9 17.52 80.02 17.52 80.02 17.52 80.02 9.82 78.92 8.19 76.87 8.19 76.87 10.9 57 10.8 53.97 10.69 50.94 7.32 28.34 7.32 28.34 7.32 28.34 8.49 26.68 19.52 23.73z"/><rect width="4.63" height="3.44" x="20.49" y="71.52" fill="#3E5E78"/><path fill="#000" d="M23.89,27.09 C23.89,27.09 21.82,34.14 21.64,48.15 C21.46,62.16 21.89,66.17 21.89,66.17 L23.5,69.36 L25.65,66.03 C25.65,66.03 24.96,33.8 25.36,27.33 L23.89,27.09 Z"/><path fill="url(#D)" d="M32.52,46.8 C32.52,46.8 35.58,45.26 36,44.99 C36.42,44.72 41.53,43.96 42.18,43.98 C42.82,44 42.85,44.51 42.67,44.7 C42.49,44.88 37.38,45.72 37.29,45.84 C37.2,45.96 37.72,45.92 37.72,45.92 C37.72,45.92 43.22,45.84 43.61,46.2 C44,46.57 43.55,46.92 43.33,47.01 C43.33,47.01 43.83,47.59 43.25,47.82 C42.67,48.06 41.89,48.21 41.89,48.21 C41.89,48.21 42.62,48.58 42.14,48.92 C41.66,49.25 35.83,51.06 35.83,51.06 C35.83,51.06 33.67,46.92 32.52,46.8 Z"/><path fill="#000" d="M43.03,57.34 C39.06,58.29 29.87,56.75 26.37,55.98 C25.63,55.82 24.79,55.65 23.93,55.48 L23.93,55.48 C22.5,55.2 21,54.93 19.79,54.71 L19.79,54.71 C18.3,54.44 17.23,54.26 17.23,54.26 C17.23,54.26 36.51,49.93 37.22,49.93 C37.93,49.93 35.44,38.66 35.44,38.66 C35.44,38.66 32.96,29.22 34.25,25.51 C34.25,25.51 39.14,26.99 40.73,28.12 C41.61,28.75 42.26,32.85 42.86,35.63 C43.62,39.16 45.4,47.19 45.6,48.89 C45.77,50.43 47.01,56.39 43.03,57.34 Z"/><path fill="#000" d="M13.53,25.55 C13.53,25.55 7.61,27.57 7.32,28.34 C6.12,31.59 5.56,35.15 5.18,36.57 C4.71,38.31 3.64,43.52 3.36,45.22 C3.01,47.39 2.33,55.06 2.63,56.24 C3,57.73 6.52,57.63 8.42,57.33 C10.32,57.03 36.7,50.61 36.7,50.61 C36.7,50.61 35.2,45.7 35.12,45.27 C35.12,45.27 14.78,47.59 12.19,48.15 C10.71,48.47 10.39,48.59 10.39,48.59 C10.39,48.59 14.88,30.19 13.53,25.55 Z"/><path fill="url(#E)" d="M17.03,47.52 C17.03,47.52 14.38,45.36 14.02,45 C13.66,44.64 8.84,42.8 8.21,42.69 C7.58,42.57 7.47,43.08 7.52,43.33 C7.6,43.77 12.52,45.42 12.58,45.56 C12.64,45.7 12.14,45.54 12.14,45.54 C12.14,45.54 6.78,44.27 6.33,44.55 C5.88,44.83 6.23,45.26 6.43,45.4 C6.43,45.4 5.82,45.85 6.33,46.21 C6.85,46.57 7.58,46.88 7.58,46.88 C7.58,46.88 6.79,47.09 7.19,47.52 C7.58,47.95 10.4,48.59 10.4,48.59 C10.4,48.59 15.89,47.39 17.03,47.52 Z"/><path fill="#000" d="M30.85,2.16 C30.37,1.57 29.64,1.61 29.13,1.73 C28.69,1.43 28.14,1.09 28.14,1.09 C25.88,-0.22 21.83,0.42 20.34,1.06 C18.14,2.86 17.97,5.92 18.08,7.61 C18.12,8.01 18.17,8.41 18.22,8.8 C18.22,8.81 18.22,8.81 18.22,8.81 C18.42,10.49 18.62,11.95 18.62,11.95 L19.32,12.76 C19.32,12.76 19.14,9.96 19.57,9.81 C19.8,9.73 19.86,9.16 19.86,8.66 C19.86,8.23 19.82,7.84 19.82,7.84 C24.3,5.78 29.33,7.25 29.44,7.53 C29.51,7.71 29.61,8.25 29.71,8.72 C29.77,9.01 29.83,9.27 29.88,9.42 C30.01,9.82 29.96,12.34 29.96,12.34 L30.83,11.2 C30.83,11.2 31.02,10.24 31.23,8.96 C31.23,8.96 31.27,8.76 31.3,8.43 C31.65,6.01 31.45,2.88 30.85,2.16 Z"/><path fill="url(#F)" d="M28.39,22.18 C28.39,22.18 27.16,23.79 24.55,25.51 L26.17,28.01 L28.94,23.05 L28.39,22.18 Z"/><path fill="url(#G)" d="M20.62,22.55 C20.62,22.55 22.18,24.51 24.55,25.5 L22.76,28.08 L19.62,23.67 L20.62,22.55 Z"/></g><g fill-rule="nonzero" transform="translate(595 151)"><path fill="#131C24" d="M50.44,137.56 C49.41,138.5 49.22,139.99 48.09,140.65 C47.76,140.84 47.12,141.04 46.36,141.17 C44.98,141.42 43.22,141.47 42.37,140.97 C42.08,140.8 41.89,140.57 41.85,140.25 C41.65,138.52 44.22,136.58 45.35,135.71 C46.05,135.18 46.77,133.94 47.34,132.8 C47.7,132.09 48,131.42 48.2,130.98 C48.2,130.98 48.2,130.98 48.2,130.98 C48.21,130.99 48.27,131.1 48.43,131.22 C48.66,131.39 49.1,131.55 49.88,131.43 C50.96,131.25 51.38,130.97 51.51,130.86 C51.52,130.85 51.52,130.85 51.53,130.84 C51.54,130.83 51.54,130.83 51.55,130.82 C51.55,130.82 51.55,130.82 51.56,130.81 C51.56,130.81 51.56,130.81 51.56,130.81 L51.56,130.81 C51.56,130.81 51.56,130.81 51.56,130.81 C51.78,131.89 52.14,133 52.27,133.52 C52.72,135.34 51.41,136.67 50.44,137.56 Z"/><path fill="#FFF" d="M33.53,60.44 C33.53,60.44 29.89,73.14 29.25,76.38 C28.61,79.62 26.83,95.32 26.64,97.99 C26.45,100.66 23.76,113.17 23.63,114.12 C22.62,121.19 21.44,130.99 21.44,130.99 C21.44,130.99 23.74,133.71 24.83,130.91 C28.65,121.09 30.59,119.28 31.43,112.77 C33.08,99.93 34.76,100.04 35.33,98.54 C41.03,83.38 41.98,74.74 42.75,73.85 C43.51,72.96 43.62,74.3 44.06,76.27 C44.5,78.24 43.88,91.8 44.68,97.03 C45.12,99.88 46.1,106.27 46.42,109.95 C46.74,113.64 48.4,130.69 48.4,130.69 C48.4,130.69 50.46,133.53 51.54,130.83 C51.64,130.58 53.6,114.84 53.67,110.45 C53.73,106.07 51.8,105.44 53.35,96.95 C56.68,78.75 56.22,75.62 52.33,62.54 C42.81,30.56 33.53,60.44 33.53,60.44 Z"/><path fill="url(#H)" d="M52.42,59.36 C52.42,59.36 58.2,71.34 54.32,95.63 C54.32,95.63 42.53,94.53 24.84,93.26 C24.84,93.26 32.89,60.57 33.11,58.5 C33.33,56.42 52.42,59.36 52.42,59.36 Z"/><path fill="#0F3A5E" d="M48.4,130.7 C48.4,130.7 47.13,132.48 47.27,132.75 C47.4,133.02 50.03,133.44 50.48,132.81 C50.93,132.18 51.55,130.83 51.55,130.83 C51.55,130.83 49.11,132.03 48.4,130.7 Z"/><path fill="#131C24" d="M23.52,137.25 C22.19,137.65 21.79,139.91 20.66,140.58 C19.53,141.25 14,141.71 13.8,139.98 C13.6,138.25 16.12,136.7 17.25,135.83 C18.38,134.97 20.92,132.12 21.44,130.99 C21.44,130.99 21.9,131.71 23.25,131.49 C24.6,131.27 24.83,130.91 24.83,130.91 C24.78,132.25 25.25,133.2 25.38,133.72 C25.85,135.52 24.85,136.85 23.52,137.25 Z"/><path fill="#FFF" d="M11.8,37.87 C11.8,37.87 10.51,36.69 10.81,35.74 C11.06,34.93 10.8,33.71 10.72,33.33 C10.61,32.82 10.87,31.15 10.23,31.28 C9.59,31.41 9.68,34.01 9.59,34.57 C9.5,35.12 7.87,33.23 7.3,33.12 C6.73,33.01 3.75,35.89 5.02,37.05 C6.29,38.22 8.42,38.63 8.6,38.88 C8.78,39.13 9.49,39.77 9.49,39.77 L11.8,37.87 Z"/><path fill="#FFF" d="M7.66 33.32C7.66 33.32 3.54 30 3.08 30.0099775 2.62 30.02 2.45 30.25 2.83 30.58 3.2 30.91 6.72 33.9 6.72 33.9 6.72 33.9 1.18 30.8.8 30.72.58 30.68.23 31.11.41 31.3.59 31.49 5.91 34.88 5.91 34.88 5.91 34.88.73 31.99.4 32.02.11 32.05-.11 32.53.26 32.77.63 33.01 5.28 35.96 5.28 35.96 5.28 35.96 1.38 34.09 1.11 34.29.95 34.41.63 34.77 1.65 35.22 2.67 35.67 4.97 36.99 4.97 36.99L7.66 33.32zM74.73 22.14C74.73 22.14 76.02 20.96 75.72 20.01 75.47 19.2 75.73 17.98 75.81 17.6 75.92 17.09 75.66 15.42 76.3 15.55 76.94 15.68 76.85 18.28 76.94 18.84 77.03 19.39 78.66 17.5 79.23 17.39 79.8 17.28 82.77 20.16 81.51 21.32 80.24 22.49 78.11 22.9 77.93 23.15 77.75 23.4 77.04 24.04 77.04 24.04L74.73 22.14z"/><path fill="#FFF" d="M78.87,17.59 C78.87,17.59 82.99,14.27 83.45,14.2799775 C83.91,14.29 84.08,14.52 83.7,14.85 C83.33,15.18 79.81,18.17 79.81,18.17 C79.81,18.17 85.35,15.07 85.73,14.99 C85.95,14.95 86.3,15.38 86.12,15.57 C85.94,15.76 80.62,19.15 80.62,19.15 C80.62,19.15 85.8,16.26 86.13,16.29 C86.42,16.32 86.64,16.8 86.27,17.04 C85.9,17.28 81.25,20.23 81.25,20.23 C81.25,20.23 85.15,18.36 85.42,18.56 C85.58,18.68 85.9,19.04 84.88,19.49 C83.86,19.94 81.56,21.26 81.56,21.26 L78.87,17.59 Z"/><path fill="#131C24" d="M40.67,0.91 C40.67,0.91 44.99,0.46 46.55,4.63 C48.11,8.81 49.57,10.17 49.76,12.37 C50.5,21.24 54.65,19.24 53.48,24.35 C52.32,29.46 51.51,30.24 51.51,30.24 L41.6,28.3 L31.57,28.33 C31.57,28.33 35.5,26.37 34.62,22.19 C33.75,18.01 31.57,11.17 32.8,6.51 C34.03,1.84 38.09,1.26 40.67,0.91 Z"/><path fill="url(#I)" d="M77.98,24.13 C77.83,23.97 68.58,30.19 67.57,30.77 C65.59,31.92 63.43,31.86 61.19,31.99 C58.67,32.14 55.82,31.88 53.35,32.37 C52.07,32.63 51.92,32.96 51.25,34.32 C49.44,38.02 48.85,42.63 48.61,46.7 C48.36,50.95 49.99,53.9 51.7,57.65 C52.28,58.92 53.02,60 52.4,61.06 C51.67,62.32 48.97,62.66 47.64,62.83 C44.37,63.26 39.54,62.88 36.2,62.22 C30.6,61.11 33.03,55.77 32.62,52.38 C32.34,50.11 31.25,46.71 30.62,44.51 C30,42.34 29.93,41.43 30.05,39.12 C28.85,42.54 28.08,47.77 24.84,49.94 C22.33,51.62 19.85,49.97 18.05,48.4 C14.63,45.43 11.22,42.45 7.8,39.48 C8.53,38.81 9.26,38.14 9.98,37.46 C10.22,37.24 10.23,37.18 10.51,36.96 C11.15,36.45 11.07,36.26 11.73,36.71 C12.17,37.01 13.35,38.11 13.73,38.46 C14.97,39.61 16.05,40.31 17.29,41.46 C18.37,42.46 21.26,44.05 21.67,43.69 C22.75,42.77 23.48,40.76 23.92,39.61 C25.13,36.41 26.36,33.18 27.8,30.07 C29.35,26.74 32.77,24.98 36.09,23.65 C38.97,22.5 42.82,22.73 45.73,23.47 C47.78,23.99 48.51,24.02 50.54,24.59 C52.49,25.13 54.31,25.82 56.28,26.23 C58.58,26.71 60.93,26.87 63.28,26.9 C65.13,26.92 65.89,26.61 67.44,25.53 C69.53,24.08 73.3,20.9 75.56,19.66 C76.1,19.4 77.6,22.54 77.98,24.13 Z"/><path fill="url(#J)" d="M43.77,22.75 C43.44,20.98 43.66,18.25 43.66,18.25 C43.66,18.25 37.63,16.98 37.89,19.11 C38.06,20.52 37.73,22.16 37.49,23.11 C36.85,23.33 36.47,23.52 36.47,23.52 C35.48,28.34 39.15,31.59 39.15,31.59 C42.86,30.19 45.73,23.5 45.73,23.5 C45.07,23.15 44.41,22.92 43.77,22.75 Z"/><path fill="url(#K)" d="M41.24,3.35 C41.24,3.35 46.97,4.18 46.13,12.63 C45.29,21.08 40.24,20.41 39.9,20.41 C39.56,20.4 34.83,20.59 34.42,10.27 C34.42,10.26 34.23,2.63 41.24,3.35 Z"/><path fill="#131C24" d="M40.59,6.41 C40.59,6.41 43.27,9.22 44.51,10.65 C45.75,12.08 45.9,14.83 45.9,14.83 C45.9,14.83 47.99,12.27 47.12,9.29 C46.24,6.31 44.17,0.52 38.93,2.3 C33.69,4.08 33.49,11.91 34.11,15.8 C34.09,15.79 36.45,7.22 40.59,6.41 Z"/></g><g transform="translate(0 106)"><rect width="8.53" height="168.17" x="273.64" y="162.22" fill="#1289CC"/><rect width="8.53" height="168.17" x="269.45" y="162.22" fill="#000" fill-rule="nonzero"/><rect width="8.49" height="168.17" x="301.17" y="162.22" fill="#1289CC"/><rect width="8.49" height="168.17" x="296.98" y="162.22" fill="#000" fill-rule="nonzero"/><rect width="8.53" height="168.17" x="93.01" y="162.22" fill="#125CAE"/><rect width="8.53" height="168.17" x="88.83" y="162.22" fill="#000" fill-rule="nonzero"/><rect width="8.5" height="168.17" x="120.55" y="162.22" fill="#1289CC"/><rect width="8.49" height="168.17" x="116.36" y="162.22" fill="#000" fill-rule="nonzero"/><rect width="268.52" height="16.66" x="57.62" y="155.24" fill="#000" fill-rule="nonzero"/><polygon fill="url(#L)" points="177.53 95.3 260.16 89.48 261.48 92.38 250.64 151.5 246.84 151.5 165.15 156.52"/><polygon fill="#000" fill-rule="nonzero" points="174.63 89.48 259.87 89.48 247.49 150.74 162.26 150.74"/><rect width="23.39" height="4.61" x="224.36" y="150.63" fill="url(#M)"/><rect width="78.79" height="4.61" x="145.56" y="150.63" fill="#431CA3"/><polygon fill="#3F2759" points="177.53 93.03 166.58 147.15 244.57 147.15 255.51 93.03"/><path fill="#FFF" d="M191.88 155.24C194.52 155.57 200.08 154.73 204.04 152.16 207.96 149.6 211.07 147.16 211.07 147.16 211.07 147.16 219.61 148.27 220.16 146.32 220.4 143.71 209.1 140.63 207.52 140.44 205.91 140.26 192.65 142.12 191.3 143.48 189.94 144.84 191.88 155.24 191.88 155.24zM147.72 147.81C150.36 148.14 155.92 147.3 159.84 144.73 163.76 142.17 167.49 138.43 167.49 138.43 167.49 138.43 176.02 139.24 175.84 138.43 175.62 137.66 164.93 133.19 163.32 133.01 161.75 132.83 148.46 134.7 147.1 136.05 145.74 137.41 147.72 147.81 147.72 147.81z"/><path fill="#FFF" d="M163.21,137.48 C164.05,138.54 169.4,142.53 168.37,144.07 C167.34,145.65 164.89,146.3 162.22,144.36 C159.55,142.42 157.86,140.15 158.6,139.38 C159.33,138.62 163.21,137.48 163.21,137.48 Z"/><path fill="url(#N)" d="M49.38,84.72 C41.25,88.02 43.19,103.69 46.89,114.93 C50.55,126.17 88.52,152.71 99.76,155.64 C111,158.53 154.61,144.91 154.61,144.91 C157.58,138.87 155.01,132.46 149.63,133.85 C149.63,133.85 107.12,140.51 100.75,133.15 C95.62,127.27 57.98,81.24 49.38,84.72 Z"/><path fill="url(#O)" d="M83.79,64.36 C70.5,91.12 43.19,82.19 36.74,56.6 C30.3,31.04 28.61,8.97 51.02,5.09 C75.37,0.88 97.12,37.6 83.79,64.36 Z"/><path fill="#FFF" d="M42.2,64.95 C44.73,72.9 43.96,94.2 43.96,94.2 C43.96,94.2 79.91,104.67 78.82,99.84 C74.43,80.25 72.19,63.12 68.17,59.53 C64.83,56.6 56.63,66.45 42.2,64.95 Z"/><path fill="#000" fill-rule="nonzero" d="M115.47,306.16 C115.47,306.16 123.19,315.5 133.19,319.67 C143.19,323.84 147.69,325.64 146.08,328.2 C144.47,330.76 131.65,329.55 121.99,329.88 C112.36,330.21 105.84,330.94 105.51,327.87 C105.18,324.83 106.72,307.95 106.72,307.95 L115.47,306.16 Z"/><path fill="url(#P)" d="M101.41,233.52 C101.78,243.99 105.33,322.51 105.33,322.51 C107.81,325.38 124.23,319.49 125.38,315.51 C125.38,315.51 132.42,228.1 129.68,227.7 C126.96,227.33 101.41,233.52 101.41,233.52 Z"/><path fill="#000" fill-rule="nonzero" d="M199.82,306.53 C199.82,306.53 207.54,315.87 217.5,320.08 C227.5,324.26 232,326.01 230.39,328.61 C228.78,331.17 215.96,329.93 206.33,330.26 C196.66,330.59 190.15,331.32 189.82,328.28 C189.49,325.21 191.03,308.33 191.03,308.33 L199.82,306.53 Z"/><path fill="url(#Q)" d="M48.13,201.92 C46.96,210.08 34.55,222.86 49.67,235.64 C64.79,248.42 162.15,237.62 163.39,239.34 C164.63,241.03 188.73,323.87 188.73,323.87 C188.73,323.87 209.58,323.21 208.48,314.68 C200.43,292.46 201.76,221.51 185.47,213.75 C169.22,205.99 48.13,201.92 48.13,201.92 Z"/><path fill="url(#R)" d="M88.04,86.85 C74.09,83.15 32.41,80.17 26.82,92.09 C13.85,119.77 24.17,226.14 42.23,227.89 C53.84,229.03 111.44,227.26 113.38,206.36 C115.9,178.86 90.46,139.09 88.04,86.85 Z"/><rect width="14.13" height="70.15" x="25.71" y="173.64" fill="#FFF"/><rect width="14.13" height="70.15" x="22.7" y="173.08" fill="#000" fill-rule="nonzero"/><path fill="url(#S)" d="M88.04,86.85 C79.91,90.15 81.82,105.85 85.51,117.09 C89.21,128.29 127.18,154.84 138.42,157.77 C149.66,160.66 194.62,154.99 194.62,154.99 C197.55,148.95 195.02,142.54 189.6,143.93 C189.6,143.93 145.74,142.65 139.37,135.29 C134.29,129.39 96.61,83.37 88.04,86.85 Z"/><path fill="#000" fill-rule="nonzero" d="M73.91,30.61 C71.31,27.32 78.41,41.08 76.25,46.87 C76.29,40.68 61.28,33.21 67.06,50.02 C67.76,52.07 68.63,60.83 68.63,60.83 C68.48,64.44 50.02,75.35 43.92,71.14 C38.39,67.92 29.64,54.96 24.04,40.42 C18.4,25.88 28.29,18.78 28.29,18.78 C28.29,18.78 26.94,15.08 31.4,8.13 C34.88,2.64 86.72,-8.24 83.94,15.71 C83.36,20.65 78.16,24.93 73.91,30.61 Z"/><path fill="#FFF" d="M12.96,116.47 L66.74,116.47 C70.63,116.47 73.84,120.79 73.84,126.06 L73.84,166.19 C73.84,171.46 70.63,175.78 66.74,175.78 L12.96,175.78 C9.04,175.78 5.83,171.46 5.83,166.19 L5.83,126.06 C5.83,120.79 9.04,116.47 12.96,116.47 Z"/><path fill="#000" fill-rule="nonzero" d="M7.67,116.59 L61.45,116.59 C65.34,116.59 68.55,120.91 68.55,126.18 L68.55,166.31 C68.55,171.58 65.34,175.9 61.45,175.9 L7.67,175.9 C3.75,175.9 0.54,171.58 0.54,166.31 L0.54,126.18 C0.55,120.91 3.76,116.59 7.67,116.59 Z"/><rect width="12.67" height="71.51" x="73.85" y="246.85" fill="#000" fill-rule="nonzero"/><rect width="92.01" height="5.02" x="35.01" y="316.81" fill="#000" fill-rule="nonzero"/><path fill="#000" fill-rule="nonzero" d="M125.08 329.81C128.81 329.81 131.82 326.81 131.82 323.11 131.82 319.37 128.82 316.37 125.08 316.37 121.38 316.37 118.38 319.37 118.38 323.11 118.38 326.81 121.38 329.81 125.08 329.81zM79.37 329.66C83.1 329.66 86.11 326.66 86.11 322.96 86.11 319.23 83.11 316.22 79.37 316.22 75.67 316.22 72.67 319.22 72.67 322.96 72.67 326.66 75.67 329.66 79.37 329.66zM35.3 329.81C39 329.81 42.04 326.81 42.04 323.11 42.04 319.37 39 316.37 35.3 316.37 31.6 316.37 28.56 319.37 28.56 323.11 28.56 326.81 31.6 329.81 35.3 329.81zM20.78 235.64L139.56 235.64C144.06 235.64 147.72 239.3 147.72 243.77 147.72 248.28 144.06 251.93 139.56 251.93L20.78 251.93C16.31 251.93 12.65 248.27 12.65 243.77 12.66 239.31 16.32 235.64 20.78 235.64z"/><path fill="#BCD8FA" d="M41.04,84.78 C41.22,82.44 42.88,75.84 42.88,75.84 C42.88,75.84 69.83,74.01 76.23,77.01 C77.24,77.48 83.46,86.66 83.46,86.66 C66.47,83.58 51.94,83.44 41.04,84.78 Z"/><polygon fill="#1E8191" points="177.53 93.03 255.51 93.03 255.02 95.46 177.01 95.61"/><path fill="#1E8191" d="M244.17 101.46C244.17 101.83 243.87 102.12 243.51 102.12L181.85 102.12C181.48 102.12 181.19 101.82 181.19 101.46L181.19 101.46C181.19 101.09 181.49 100.8 181.85 100.8L243.51 100.8C243.87 100.8 244.17 101.1 244.17 101.46L244.17 101.46zM232.06 105.23C232.06 105.6 231.82 105.89 231.52 105.89L180.97 105.89C180.67 105.89 180.43 105.59 180.43 105.23L180.43 105.23C180.43 104.86 180.67 104.57 180.97 104.57L231.52 104.57C231.81 104.57 232.06 104.87 232.06 105.23L232.06 105.23zM231.3 109.88C231.3 110.25 231.06 110.54 230.76 110.54L180.21 110.54C179.91 110.54 179.67 110.24 179.67 109.88L179.67 109.88C179.67 109.51 179.91 109.22 180.21 109.22L230.76 109.22C231.06 109.22 231.3 109.52 231.3 109.88L231.3 109.88zM241.65 113.96C241.65 114.33 241.35 114.62 240.99 114.62L179.26 114.62C178.89 114.62 178.6 114.32 178.6 113.96L178.6 113.96C178.6 113.59 178.9 113.3 179.26 113.3L240.99 113.3C241.36 113.3 241.65 113.6 241.65 113.96L241.65 113.96zM239.37 123.66C239.37 124.03 239.07 124.32 238.71 124.32L176.98 124.32C176.61 124.32 176.32 124.02 176.32 123.66L176.32 123.66C176.32 123.29 176.62 123 176.98 123L238.71 123C239.07 123 239.37 123.3 239.37 123.66L239.37 123.66zM217.02 118.56C217.02 118.93 216.83 119.22 216.61 119.22L178.18 119.22C177.95 119.22 177.77 118.92 177.77 118.56L177.77 118.56C177.77 118.19 177.95 117.9 178.18 117.9L216.61 117.9C216.84 117.9 217.02 118.2 217.02 118.56L217.02 118.56zM204.18 127.89C204.18 128.26 204.05 128.55 203.88 128.55L176.14 128.55C175.98 128.55 175.84 128.25 175.84 127.89L175.84 127.89C175.84 127.52 175.97 127.23 176.14 127.23L203.88 127.23C204.05 127.23 204.18 127.53 204.18 127.89L204.18 127.89zM225.35 133C225.35 133.37 225.11 133.66 224.82 133.66L175.16 133.66C174.87 133.66 174.63 133.36 174.63 133L174.63 133C174.63 132.63 174.87 132.34 175.16 132.34L224.82 132.34C225.12 132.34 225.35 132.64 225.35 133L225.35 133z"/></g></g></svg>